<?xml version="1.0" encoding="UTF-8"?>
<svg width="300" height="300" viewBox="0 0 300 300" fill="none" xmlns="http://www.w3.org/2000/svg">
  <rect width="300" height="300" fill="#1F2937"/>
  <path d="M150 125C137.574 125 127.5 135.074 127.5 147.5C127.5 159.926 137.574 170 150 170C162.426 170 172.5 159.926 172.5 147.5C172.5 135.074 162.426 125 150 125ZM150 162.5C141.716 162.5 135 155.784 135 147.5C135 139.216 141.716 132.5 150 132.5C158.284 132.5 165 139.216 165 147.5C165 155.784 158.284 162.5 150 162.5Z" fill="#E5E7EB"/>
  <path d="M150 137.5C144.477 137.5 140 141.977 140 147.5C140 153.023 144.477 157.5 150 157.5C155.523 157.5 160 153.023 160 147.5C160 141.977 155.523 137.5 150 137.5ZM150 152.5C147.239 152.5 145 150.261 145 147.5C145 144.739 147.239 142.5 150 142.5C152.761 142.5 155 144.739 155 147.5C155 150.261 152.761 152.5 150 152.5Z" fill="#E5E7EB"/>
</svg>
